<?xml version="1.0" encoding="UTF-8"?>
<svg width="419px" height="419px" viewBox="0 0 419 419" version="1.1" xmlns="http://www.w3.org/2000/svg" xmlns:xlink="http://www.w3.org/1999/xlink">
    <title>􀂭</title>
    <g id="Template---Icons---App" stroke="none" stroke-width="1" fill="none" fill-rule="evenodd">
        <g id="App-Icons---@2x" transform="translate(-302, -893)" fill="#FFFFFF" fill-rule="nonzero">
            <g id="512x512@2x" transform="translate(0, 590)">
                <g id="Artwork" transform="translate(100, 100)">
                    <g id="􀂭" transform="translate(202, 203)">
                        <path d="M72.5789174,419 L346.421083,419 C370.454891,419 388.559829,412.988122 400.735897,400.964367 C412.911966,388.940612 419,371.064234 419,347.335234 L419,71.9036488 C419,48.1746484 412.911966,30.2584569 400.735897,18.1550741 C388.559829,6.05169137 370.454891,0 346.421083,0 L72.5789174,0 C48.7042735,0 30.6391263,6.01187761 18.3834758,18.0356328 C6.12782526,30.0593881 0,48.0153934 0,71.9036488 L0,347.335234 C0,371.223489 6.12782526,389.139681 18.3834758,401.083808 C30.6391263,413.027936 48.7042735,419 72.5789174,419 Z M119.850712,317.713797 C107.91339,317.713797 101.944729,311.025086 101.944729,297.647662 L101.944729,121.352338 C101.944729,114.504371 104.173029,108.930445 108.62963,104.630559 C113.08623,100.330673 118.736562,98.1807298 125.580627,98.1807298 C137.836277,98.1807298 146.112821,103.834284 150.410256,115.141391 L209.14188,263.72634 L210.574359,263.72634 L268.82849,115.141391 C273.28509,103.834284 281.561633,98.1807298 293.65812,98.1807298 C300.661349,98.1807298 306.351472,100.330673 310.72849,104.630559 C315.105508,108.930445 317.294017,114.504371 317.294017,121.352338 L317.294017,297.647662 C317.294017,304.017864 315.702374,308.95477 312.519088,312.458381 C309.335802,315.961992 304.879202,317.713797 299.149288,317.713797 C293.737702,317.713797 289.400475,315.922178 286.137607,312.33894 C282.874739,308.755701 281.243305,303.858609 281.243305,297.647662 L281.243305,167.45667 L279.333333,167.45667 L228.002849,296.692132 C224.501235,305.291904 218.293827,309.59179 209.380627,309.59179 C200.626591,309.59179 194.419183,305.291904 190.758405,296.692132 L140.14416,167.45667 L137.995442,167.45667 L137.995442,297.647662 C137.995442,304.017864 136.364008,308.95477 133.10114,312.458381 C129.838272,315.961992 125.421462,317.713797 119.850712,317.713797 Z" id="Shape"></path>
                    </g>
                </g>
            </g>
        </g>
    </g>
</svg>